<?xml version="1.0" encoding="utf-8"?>
<!-- Generator: Adobe Illustrator 25.0.0, SVG Export Plug-In . SVG Version: 6.00 Build 0)  -->
<svg version="1.1" id="图层_1" xmlns="http://www.w3.org/2000/svg" xmlns:xlink="http://www.w3.org/1999/xlink" x="0px" y="0px"
	 viewBox="0 0 32 32" style="enable-background:new 0 0 32 32;" xml:space="preserve">
<style type="text/css">
	.st0{fill:#004098;}
	.st1{fill:#FFFFFF;}
	.st2{fill:#0099D9;}
</style>
<g>
	<path class="st0" d="M24.9,32H7.1C3.2,32,0,28.8,0,24.9V7.1C0,3.2,3.2,0,7.1,0h17.7C28.8,0,32,3.2,32,7.1v17.7
		C32,28.8,28.8,32,24.9,32z"/>
	<g>
		<g>
			<path class="st1" d="M21.3,17.9L20,16.1v0l-4.7-6.8c-0.6-0.9-1.7-1.5-2.8-1.5H6.2l7,10.1l-4.4,6.3h6.3c1.1,0,2.2-0.6,2.8-1.5
				l2.1-3.1v0L21.3,17.9L21.3,17.9L21.3,17.9z"/>
			<path class="st2" d="M24.7,10h-5.9l4,5.8l2.8-4C26.1,11,25.6,10,24.7,10z"/>
		</g>
	</g>
</g>
</svg>
